<svg width="183" height="40" viewBox="0 0 183 40" fill="none" xmlns="http://www.w3.org/2000/svg">
<g clip-path="url(#clip0_2245_1234)">
<rect width="183" height="40" fill="white"/>
<circle cx="20" cy="20" r="20" fill="#1B32FE"/>
<path d="M65.876 17.6841H62.1523C62.0843 17.2024 61.9454 16.7744 61.7357 16.4003C61.526 16.0206 61.2567 15.6975 60.928 15.4311C60.5993 15.1648 60.2195 14.9607 59.7888 14.819C59.3637 14.6773 58.9017 14.6065 58.403 14.6065C57.5018 14.6065 56.7168 14.8304 56.048 15.2781C55.3792 15.7202 54.8606 16.3663 54.4922 17.2165C54.1237 18.061 53.9395 19.0869 53.9395 20.2942C53.9395 21.5354 54.1237 22.5783 54.4922 23.4228C54.8662 24.2673 55.3877 24.905 56.0565 25.3357C56.7253 25.7665 57.499 25.9819 58.3775 25.9819C58.8706 25.9819 59.3268 25.9167 59.7463 25.7863C60.1713 25.656 60.5483 25.4661 60.877 25.2167C61.2057 24.9617 61.4778 24.6528 61.6932 24.29C61.9142 23.9273 62.0672 23.5135 62.1523 23.0487L65.876 23.0658C65.7797 23.8649 65.5388 24.6357 65.1534 25.3782C64.7737 26.1151 64.2607 26.7754 63.6146 27.3592C62.9741 27.9373 62.2089 28.3964 61.3191 28.7364C60.4349 29.0708 59.4345 29.2381 58.318 29.2381C56.765 29.2381 55.3763 28.8866 54.1521 28.1838C52.9335 27.481 51.97 26.4636 51.2615 25.1317C50.5587 23.7997 50.2073 22.1872 50.2073 20.2942C50.2073 18.3954 50.5643 16.7801 51.2785 15.4482C51.9926 14.1162 52.9618 13.1017 54.1861 12.4045C55.4103 11.7017 56.7876 11.3503 58.318 11.3503C59.3268 11.3503 60.262 11.492 61.1235 11.7754C61.9907 12.0588 62.7587 12.4725 63.4275 13.0166C64.0963 13.5551 64.6405 14.2154 65.0599 14.9976C65.485 15.7797 65.757 16.6752 65.876 17.6841ZM67.7296 29V15.9413H71.3514V29H67.7296ZM69.549 14.2579C69.0105 14.2579 68.5486 14.0794 68.1632 13.7223C67.7835 13.3595 67.5936 12.926 67.5936 12.4215C67.5936 11.9227 67.7835 11.4948 68.1632 11.1377C68.5486 10.775 69.0105 10.5936 69.549 10.5936C70.0874 10.5936 70.5465 10.775 70.9263 11.1377C71.3117 11.4948 71.5044 11.9227 71.5044 12.4215C71.5044 12.926 71.3117 13.3595 70.9263 13.7223C70.5465 14.0794 70.0874 14.2579 69.549 14.2579ZM85.7089 15.9413L81.1435 29H77.0626L72.4972 15.9413H76.323L79.035 25.2847H79.1711L81.8746 15.9413H85.7089ZM86.8441 29V15.9413H90.4659V29H86.8441ZM88.6635 14.2579C88.125 14.2579 87.6631 14.0794 87.2777 13.7223C86.8979 13.3595 86.7081 12.926 86.7081 12.4215C86.7081 11.9227 86.8979 11.4948 87.2777 11.1377C87.6631 10.775 88.125 10.5936 88.6635 10.5936C89.2019 10.5936 89.661 10.775 90.0408 11.1377C90.4262 11.4948 90.6189 11.9227 90.6189 12.4215C90.6189 12.926 90.4262 13.3595 90.0408 13.7223C89.661 14.0794 89.2019 14.2579 88.6635 14.2579ZM98.5491 29.2551C97.2115 29.2551 96.0609 28.9717 95.0974 28.4049C94.1395 27.8324 93.4027 27.0389 92.8869 26.0244C92.3768 25.0098 92.1217 23.8422 92.1217 22.5216C92.1217 21.184 92.3796 20.0108 92.8954 19.0019C93.4169 17.9874 94.1565 17.1967 95.1144 16.6299C96.0722 16.0574 97.2115 15.7712 98.5321 15.7712C99.6713 15.7712 100.669 15.9781 101.525 16.3918C102.381 16.8056 103.058 17.3866 103.557 18.1347C104.055 18.8829 104.33 19.7614 104.381 20.7703H100.964C100.867 20.1185 100.612 19.5942 100.198 19.1974C99.7904 18.795 99.2547 18.5938 98.5916 18.5938C98.0305 18.5938 97.5402 18.7468 97.1208 19.0529C96.707 19.3533 96.384 19.7926 96.1516 20.3707C95.9192 20.9488 95.803 21.6488 95.803 22.4706C95.803 23.3038 95.9164 24.0123 96.1431 24.5961C96.3755 25.1799 96.7014 25.6248 97.1208 25.9309C97.5402 26.2369 98.0305 26.39 98.5916 26.39C99.0054 26.39 99.3766 26.3049 99.7053 26.1349C100.04 25.9649 100.315 25.7183 100.53 25.3952C100.751 25.0665 100.896 24.6726 100.964 24.2135H104.381C104.325 25.211 104.053 26.0896 103.565 26.849C103.083 27.6029 102.417 28.1923 101.567 28.6174C100.717 29.0425 99.711 29.2551 98.5491 29.2551ZM110.873 29V11.5883H117.844C119.125 11.5883 120.194 11.7782 121.049 12.158C121.905 12.5377 122.549 13.0648 122.979 13.7393C123.41 14.4081 123.625 15.1789 123.625 16.0518C123.625 16.7319 123.489 17.3299 123.217 17.8457C122.945 18.3558 122.571 18.7752 122.095 19.1039C121.625 19.427 121.086 19.6565 120.48 19.7926V19.9626C121.143 19.9909 121.764 20.178 122.342 20.5237C122.925 20.8695 123.399 21.3541 123.761 21.9775C124.124 22.5953 124.306 23.3321 124.306 24.188C124.306 25.1118 124.076 25.9365 123.617 26.662C123.164 27.3818 122.492 27.9514 121.602 28.3709C120.712 28.7903 119.615 29 118.312 29H110.873ZM114.554 25.9904H117.555C118.581 25.9904 119.329 25.7948 119.8 25.4037C120.27 25.007 120.505 24.4799 120.505 23.8224C120.505 23.3406 120.389 22.9156 120.157 22.5471C119.924 22.1787 119.593 21.8897 119.162 21.68C118.737 21.4702 118.23 21.3654 117.64 21.3654H114.554V25.9904ZM114.554 18.8744H117.283C117.788 18.8744 118.235 18.7865 118.626 18.6108C119.023 18.4294 119.335 18.1744 119.562 17.8457C119.794 17.5169 119.91 17.123 119.91 16.6639C119.91 16.0348 119.686 15.5275 119.239 15.1421C118.796 14.7567 118.167 14.564 117.351 14.564H114.554V18.8744ZM125.915 29V15.9413H129.426V18.2197H129.562C129.8 17.4092 130.2 16.7971 130.761 16.3833C131.322 15.9639 131.968 15.7542 132.699 15.7542C132.881 15.7542 133.076 15.7655 133.286 15.7882C133.495 15.8109 133.68 15.8421 133.838 15.8817V19.0954C133.668 19.0444 133.433 18.9991 133.133 18.9594C132.832 18.9197 132.557 18.8999 132.308 18.8999C131.775 18.8999 131.299 19.0161 130.88 19.2484C130.466 19.4752 130.137 19.7926 129.894 20.2006C129.656 20.6087 129.536 21.0792 129.536 21.6119V29H125.915ZM134.993 29V15.9413H138.614V29H134.993ZM136.812 14.2579C136.274 14.2579 135.812 14.0794 135.426 13.7223C135.047 13.3595 134.857 12.926 134.857 12.4215C134.857 11.9227 135.047 11.4948 135.426 11.1377C135.812 10.775 136.274 10.5936 136.812 10.5936C137.351 10.5936 137.81 10.775 138.189 11.1377C138.575 11.4948 138.767 11.9227 138.767 12.4215C138.767 12.926 138.575 13.3595 138.189 13.7223C137.81 14.0794 137.351 14.2579 136.812 14.2579ZM145.609 29.2125C144.618 29.2125 143.719 28.9575 142.914 28.4474C142.115 27.9316 141.48 27.1749 141.01 26.1774C140.545 25.1742 140.313 23.9443 140.313 22.4876C140.313 20.9913 140.554 19.7472 141.036 18.7553C141.517 17.7578 142.158 17.0125 142.957 16.5194C143.762 16.0206 144.643 15.7712 145.601 15.7712C146.332 15.7712 146.941 15.8959 147.429 16.1453C147.922 16.389 148.319 16.6951 148.619 17.0635C148.925 17.4262 149.158 17.7833 149.316 18.1347H149.427V11.5883H153.04V29H149.469V26.9086H149.316C149.146 27.2713 148.905 27.6312 148.594 27.9883C148.288 28.3397 147.888 28.6316 147.395 28.864C146.907 29.0964 146.312 29.2125 145.609 29.2125ZM146.757 26.3304C147.341 26.3304 147.834 26.1717 148.237 25.8543C148.645 25.5313 148.956 25.0807 149.172 24.5026C149.393 23.9244 149.503 23.2471 149.503 22.4706C149.503 21.6941 149.396 21.0197 149.18 20.4472C148.965 19.8747 148.653 19.4327 148.245 19.1209C147.837 18.8092 147.341 18.6533 146.757 18.6533C146.162 18.6533 145.66 18.8149 145.252 19.1379C144.844 19.461 144.535 19.9088 144.326 20.4812C144.116 21.0537 144.011 21.7168 144.011 22.4706C144.011 23.2301 144.116 23.9018 144.326 24.4856C144.541 25.0637 144.85 25.5171 145.252 25.8458C145.66 26.1689 146.162 26.3304 146.757 26.3304ZM161.183 34.1691C160.01 34.1691 159.003 34.0076 158.165 33.6845C157.331 33.3671 156.668 32.9335 156.175 32.3837C155.682 31.8339 155.362 31.2161 155.215 30.5303L158.564 30.0797C158.666 30.3404 158.828 30.5842 159.049 30.8109C159.27 31.0376 159.562 31.219 159.925 31.355C160.293 31.4967 160.741 31.5675 161.268 31.5675C162.056 31.5675 162.705 31.3748 163.215 30.9894C163.73 30.6097 163.988 29.972 163.988 29.0765V26.6875H163.835C163.677 27.0503 163.439 27.3932 163.121 27.7162C162.804 28.0393 162.396 28.3029 161.897 28.5069C161.398 28.7109 160.803 28.813 160.112 28.813C159.131 28.813 158.238 28.5862 157.434 28.1328C156.634 27.6737 155.997 26.9737 155.521 26.0329C155.05 25.0863 154.815 23.8904 154.815 22.4451C154.815 20.9658 155.056 19.7302 155.538 18.7383C156.019 17.7465 156.66 17.004 157.459 16.5109C158.264 16.0178 159.145 15.7712 160.103 15.7712C160.834 15.7712 161.446 15.8959 161.939 16.1453C162.433 16.389 162.829 16.6951 163.13 17.0635C163.436 17.4262 163.671 17.7833 163.835 18.1347H163.971V15.9413H167.568V29.1275C167.568 30.2384 167.296 31.168 166.751 31.9161C166.207 32.6643 165.454 33.2254 164.49 33.5995C163.532 33.9792 162.43 34.1691 161.183 34.1691ZM161.259 26.0924C161.843 26.0924 162.336 25.9479 162.739 25.6588C163.147 25.3641 163.458 24.9446 163.674 24.4005C163.895 23.8508 164.005 23.1933 164.005 22.4281C164.005 21.663 163.898 20.9998 163.682 20.4387C163.467 19.8719 163.155 19.4327 162.747 19.1209C162.339 18.8092 161.843 18.6533 161.259 18.6533C160.664 18.6533 160.163 18.8149 159.754 19.1379C159.346 19.4553 159.038 19.8974 158.828 20.4642C158.618 21.031 158.513 21.6856 158.513 22.4281C158.513 23.1819 158.618 23.8337 158.828 24.3835C159.043 24.9276 159.352 25.3499 159.754 25.6503C160.163 25.945 160.664 26.0924 161.259 26.0924ZM175.683 29.2551C174.339 29.2551 173.183 28.983 172.214 28.4389C171.25 27.8891 170.508 27.1126 169.987 26.1094C169.465 25.1005 169.204 23.9074 169.204 22.5301C169.204 21.1869 169.465 20.0079 169.987 18.9934C170.508 17.9788 171.242 17.1882 172.189 16.6214C173.141 16.0546 174.257 15.7712 175.538 15.7712C176.4 15.7712 177.202 15.9101 177.944 16.1878C178.692 16.4599 179.344 16.8708 179.9 17.4206C180.461 17.9703 180.897 18.6618 181.209 19.495C181.521 20.3225 181.677 21.2917 181.677 22.4026V23.3973H170.65V21.1528H178.267C178.267 20.6314 178.154 20.1695 177.927 19.7671C177.701 19.3646 177.386 19.0501 176.984 18.8234C176.587 18.591 176.125 18.4748 175.598 18.4748C175.048 18.4748 174.561 18.6023 174.135 18.8574C173.716 19.1068 173.387 19.444 173.149 19.8691C172.911 20.2885 172.789 20.7561 172.784 21.2719V23.4058C172.784 24.052 172.903 24.6102 173.141 25.0807C173.384 25.5511 173.727 25.9139 174.169 26.1689C174.612 26.424 175.136 26.5515 175.742 26.5515C176.145 26.5515 176.513 26.4948 176.848 26.3814C177.182 26.2681 177.468 26.0981 177.706 25.8713C177.944 25.6446 178.126 25.3669 178.25 25.0382L181.6 25.2592C181.43 26.064 181.081 26.7669 180.554 27.3677C180.033 27.9628 179.358 28.4275 178.531 28.7619C177.709 29.0907 176.76 29.2551 175.683 29.2551Z" fill="black"/>
<path d="M32.4314 21.7103C32.0577 21.0821 31.5757 20.5965 30.9854 20.2534C30.3951 19.9103 29.7832 19.7202 29.1496 19.6833V19.5144C29.7344 19.3771 30.2652 19.1501 30.7363 18.8387C31.2129 18.5273 31.5865 18.1155 31.8682 17.6141C32.1498 17.1073 32.2906 16.5003 32.2906 15.7877C32.2906 14.922 32.0739 14.146 31.6461 13.4598C31.2183 12.7736 30.5684 12.2352 29.7074 11.8393C28.8463 11.4434 27.7632 11.2481 26.4634 11.2481H19.5857V12.1507V17.1601V22.9507H19.5532C19.4557 23.4628 19.2716 23.922 19.0117 24.3179C18.7517 24.7191 18.4322 25.0516 18.0531 25.3261C17.674 25.6006 17.2516 25.8065 16.7805 25.9437C16.3093 26.0862 15.8057 26.1548 15.2695 26.1548C14.3001 26.1548 13.4391 25.9226 12.6863 25.4581C11.9336 24.9935 11.3433 24.3021 10.9154 23.3889C10.4876 22.4651 10.271 21.3408 10.271 20C10.271 18.6856 10.4876 17.5666 10.91 16.6534C11.3378 15.7402 11.9281 15.0434 12.6809 14.5683C13.4337 14.0933 14.3001 13.8557 15.2804 13.8557C15.6486 13.8557 15.979 13.9349 16.3147 14.0035V11.0792C15.9573 11.0422 15.6053 11 15.2316 11C13.6665 11 12.2585 11.3589 11.0183 12.0716C9.77817 12.7842 8.79796 13.8135 8.07769 15.1543C7.35743 16.5003 7 18.1155 7 20C7 21.8792 7.35743 23.4944 8.07228 24.8405C8.78713 26.1865 9.76192 27.2158 11.0021 27.9284C12.2422 28.6411 13.6503 29 15.2316 29C16.3039 29 17.2787 28.8469 18.1506 28.5355C18.6759 28.3507 19.1416 28.1079 19.5857 27.8334V28.7572H22.8405V26.1073V26.0651V20.9713H26.431C27.1025 20.9713 27.6819 21.0927 28.1693 21.3355C28.6567 21.5783 29.0304 21.9109 29.2904 22.3279C29.5557 22.7449 29.6857 23.2147 29.6857 23.7372C29.6857 24.434 29.4257 24.9988 28.9004 25.4422C28.3751 25.8856 27.5249 26.1073 26.3443 26.1073H26.1169V28.7572H26.8642C28.2397 28.7572 29.377 28.5513 30.2868 28.1343C31.1912 27.7173 31.8736 27.1472 32.3231 26.4293C32.7725 25.7062 33 24.8933 33 23.9853C32.9946 23.0985 32.805 22.3384 32.4314 21.7103ZM28.6459 17.5243C28.386 17.8991 28.0285 18.1842 27.579 18.39C27.1296 18.5906 26.6205 18.6962 26.0627 18.6962H22.8405V13.8663H26.1277C27.0862 13.8663 27.8119 14.088 28.2993 14.5261C28.7867 14.9642 29.0304 15.5238 29.0304 16.2047C29.0358 16.7062 28.9059 17.1496 28.6459 17.5243Z" fill="white"/>
</g>
<defs>
<clipPath id="clip0_2245_1234">
<rect width="183" height="40" fill="white"/>
</clipPath>
</defs>
</svg>
